<svg xmlns="http://www.w3.org/2000/svg" xmlns:xlink="http://www.w3.org/1999/xlink" width="200" zoomAndPan="magnify" viewBox="0 0 150 149.999998" height="200" preserveAspectRatio="xMidYMid meet" version="1.0"><defs><clipPath id="id1"><path d="M 51.976562 45 L 97.726562 45 L 97.726562 105 L 51.976562 105 Z M 51.976562 45 " clip-rule="nonzero"/></clipPath></defs><g clip-path="url(#id1)"><path fill="rgb(62.748718%, 67.059326%, 100%)" d="M 96.710938 105 L 52.988281 105 C 52.441406 105 51.996094 104.554688 51.996094 104 L 51.996094 46 C 51.996094 45.445312 52.441406 45 52.988281 45 L 96.710938 45 C 97.257812 45 97.703125 45.445312 97.703125 46 L 97.703125 104 C 97.703125 104.554688 97.257812 105 96.710938 105 Z M 53.984375 103 L 95.714844 103 L 95.714844 47 L 53.984375 47 Z M 53.984375 103 " fill-opacity="1" fill-rule="nonzero"/></g><path fill="rgb(62.748718%, 67.059326%, 100%)" d="M 63.921875 60 C 61.179688 60 58.953125 57.757812 58.953125 55 C 58.953125 52.242188 61.179688 50 63.921875 50 C 66.660156 50 68.886719 52.242188 68.886719 55 C 68.886719 57.757812 66.660156 60 63.921875 60 Z M 63.921875 52 C 62.277344 52 60.9375 53.347656 60.9375 55 C 60.9375 56.652344 62.277344 58 63.921875 58 C 65.5625 58 66.902344 56.652344 66.902344 55 C 66.902344 53.347656 65.5625 52 63.921875 52 Z M 63.921875 52 " fill-opacity="1" fill-rule="nonzero"/><path fill="rgb(62.748718%, 67.059326%, 100%)" d="M 70.875 69 L 68.886719 69 C 68.886719 66.242188 66.660156 64 63.921875 64 C 61.179688 64 58.953125 66.242188 58.953125 69 L 56.964844 69 C 56.964844 65.140625 60.085938 62 63.921875 62 C 67.753906 62 70.875 65.140625 70.875 69 Z M 70.875 69 " fill-opacity="1" fill-rule="nonzero"/><path fill="rgb(62.748718%, 67.059326%, 100%)" d="M 91.742188 61 L 73.855469 61 C 73.308594 61 72.863281 60.554688 72.863281 60 L 72.863281 52 C 72.863281 51.445312 73.308594 51 73.855469 51 L 91.742188 51 C 92.289062 51 92.734375 51.445312 92.734375 52 L 92.734375 60 C 92.734375 60.554688 92.289062 61 91.742188 61 Z M 74.851562 59 L 90.75 59 L 90.75 53 L 74.851562 53 Z M 74.851562 59 " fill-opacity="1" fill-rule="nonzero"/><path fill="rgb(62.748718%, 67.059326%, 100%)" d="M 75.84375 100 L 57.957031 100 C 57.410156 100 56.964844 99.554688 56.964844 99 L 56.964844 93 C 56.964844 92.445312 57.410156 92 57.957031 92 L 75.84375 92 C 76.390625 92 76.835938 92.445312 76.835938 93 L 76.835938 99 C 76.835938 99.554688 76.390625 100 75.84375 100 Z M 58.953125 98 L 74.851562 98 L 74.851562 94 L 58.953125 94 Z M 58.953125 98 " fill-opacity="1" fill-rule="nonzero"/><path fill="rgb(62.748718%, 67.059326%, 100%)" d="M 72.863281 63 L 92.734375 63 L 92.734375 65 L 72.863281 65 Z M 72.863281 63 " fill-opacity="1" fill-rule="nonzero"/><path fill="rgb(62.748718%, 67.059326%, 100%)" d="M 72.863281 67 L 92.734375 67 L 92.734375 69 L 72.863281 69 Z M 72.863281 67 " fill-opacity="1" fill-rule="nonzero"/><path fill="rgb(62.748718%, 67.059326%, 100%)" d="M 78.824219 93 L 92.734375 93 L 92.734375 95 L 78.824219 95 Z M 78.824219 93 " fill-opacity="1" fill-rule="nonzero"/><path fill="rgb(62.748718%, 67.059326%, 100%)" d="M 78.824219 97 L 92.734375 97 L 92.734375 99 L 78.824219 99 Z M 78.824219 97 " fill-opacity="1" fill-rule="nonzero"/><path fill="rgb(62.748718%, 67.059326%, 100%)" d="M 56.964844 72 L 92.734375 72 L 92.734375 74 L 56.964844 74 Z M 56.964844 72 " fill-opacity="1" fill-rule="nonzero"/><path fill="rgb(62.748718%, 67.059326%, 100%)" d="M 56.964844 76 L 92.734375 76 L 92.734375 78 L 56.964844 78 Z M 56.964844 76 " fill-opacity="1" fill-rule="nonzero"/><path fill="rgb(62.748718%, 67.059326%, 100%)" d="M 56.964844 80 L 92.734375 80 L 92.734375 82 L 56.964844 82 Z M 56.964844 80 " fill-opacity="1" fill-rule="nonzero"/><path fill="rgb(62.748718%, 67.059326%, 100%)" d="M 56.964844 84 L 92.734375 84 L 92.734375 86 L 56.964844 86 Z M 56.964844 84 " fill-opacity="1" fill-rule="nonzero"/><path fill="rgb(62.748718%, 67.059326%, 100%)" d="M 56.964844 88 L 92.734375 88 L 92.734375 90 L 56.964844 90 Z M 56.964844 88 " fill-opacity="1" fill-rule="nonzero"/></svg>