<svg xmlns="http://www.w3.org/2000/svg" xmlns:xlink="http://www.w3.org/1999/xlink" width="200" zoomAndPan="magnify" viewBox="0 0 150 149.999998" height="200" preserveAspectRatio="xMidYMid meet" version="1.0"><path fill="rgb(62.748718%, 67.059326%, 100%)" d="M 54.707031 82.605469 C 54.421875 82.320312 53.988281 82.230469 53.617188 82.390625 C 53.242188 82.542969 53 82.910156 53 83.3125 L 53 96 C 53 96.554688 53.449219 97 54 97 L 66.6875 97 C 67.089844 97 67.457031 96.757812 67.609375 96.382812 C 67.765625 96.007812 67.679688 95.578125 67.394531 95.292969 Z M 55 95 L 55 85.726562 L 64.273438 95 Z M 55 95 " fill-opacity="1" fill-rule="nonzero"/><path fill="rgb(62.748718%, 67.059326%, 100%)" d="M 92.363281 64.980469 L 90.414062 66.925781 C 90.277344 66.863281 90.136719 66.808594 90 66.753906 L 90 64 C 90 63.445312 89.550781 63 89 63 L 83 63 C 82.445312 63 82 63.445312 82 64 L 82 66.753906 C 81.859375 66.808594 81.722656 66.867188 81.582031 66.929688 L 79.632812 64.980469 C 79.242188 64.589844 78.609375 64.589844 78.21875 64.980469 L 73.976562 69.222656 C 73.585938 69.613281 73.585938 70.246094 73.976562 70.636719 L 75.925781 72.585938 C 75.863281 72.722656 75.808594 72.859375 75.753906 73 L 73 73 C 72.449219 73 72 73.445312 72 74 L 72 80 C 72 80.554688 72.449219 81 73 81 L 75.753906 81 C 75.808594 81.140625 75.867188 81.277344 75.925781 81.414062 L 73.980469 83.363281 C 73.589844 83.753906 73.589844 84.386719 73.980469 84.777344 L 78.222656 89.019531 C 78.613281 89.410156 79.242188 89.410156 79.636719 89.019531 L 81.585938 87.070312 C 81.722656 87.132812 81.859375 87.191406 82 87.246094 L 82 90 C 82 90.554688 82.449219 91 83 91 L 89 91 C 89.550781 91 90 90.554688 90 90 L 90 87.246094 C 90.140625 87.191406 90.277344 87.132812 90.414062 87.070312 L 92.363281 89.019531 C 92.757812 89.410156 93.386719 89.410156 93.777344 89.019531 L 98.019531 84.777344 C 98.410156 84.386719 98.410156 83.753906 98.019531 83.363281 L 96.074219 81.414062 C 96.132812 81.277344 96.191406 81.140625 96.246094 81 L 99 81 C 99.550781 81 100 80.554688 100 80 L 100 74 C 100 73.445312 99.550781 73 99 73 L 96.246094 73 C 96.191406 72.859375 96.132812 72.722656 96.074219 72.585938 L 98.019531 70.636719 C 98.410156 70.246094 98.410156 69.613281 98.019531 69.222656 L 93.777344 64.980469 C 93.386719 64.589844 92.753906 64.589844 92.363281 64.980469 Z M 93.976562 72.84375 C 94.230469 73.324219 94.433594 73.816406 94.585938 74.300781 C 94.71875 74.71875 95.105469 75 95.539062 75 L 98 75 L 98 79 L 95.539062 79 C 95.105469 79 94.71875 79.28125 94.585938 79.699219 C 94.433594 80.183594 94.230469 80.675781 93.976562 81.15625 C 93.773438 81.546875 93.847656 82.019531 94.15625 82.328125 L 95.898438 84.070312 L 93.070312 86.898438 L 91.328125 85.15625 C 91.019531 84.847656 90.546875 84.773438 90.15625 84.976562 C 89.671875 85.230469 89.183594 85.433594 88.699219 85.585938 C 88.28125 85.71875 88 86.105469 88 86.539062 L 88 89 L 84 89 L 84 86.539062 C 84 86.105469 83.714844 85.71875 83.300781 85.585938 C 82.816406 85.433594 82.324219 85.230469 81.839844 84.976562 C 81.453125 84.777344 80.980469 84.847656 80.671875 85.15625 L 78.925781 86.898438 L 76.097656 84.070312 L 77.84375 82.328125 C 78.152344 82.019531 78.222656 81.546875 78.019531 81.160156 C 77.769531 80.675781 77.5625 80.1875 77.410156 79.699219 C 77.28125 79.28125 76.894531 79 76.460938 79 L 74 79 L 74 75 L 76.460938 75 C 76.894531 75 77.28125 74.71875 77.414062 74.300781 C 77.566406 73.816406 77.769531 73.324219 78.023438 72.84375 C 78.226562 72.453125 78.152344 71.980469 77.84375 71.671875 L 76.101562 69.929688 L 78.929688 67.101562 L 80.671875 68.84375 C 80.980469 69.152344 81.457031 69.226562 81.84375 69.023438 C 82.328125 68.769531 82.816406 68.566406 83.300781 68.414062 C 83.71875 68.28125 84 67.894531 84 67.460938 L 84 65 L 88 65 L 88 67.460938 C 88 67.894531 88.285156 68.28125 88.699219 68.414062 C 89.183594 68.566406 89.675781 68.769531 90.160156 69.023438 C 90.546875 69.226562 91.019531 69.152344 91.328125 68.84375 L 93.074219 67.101562 L 95.902344 69.929688 L 94.15625 71.671875 C 93.847656 71.980469 93.773438 72.453125 93.976562 72.84375 Z M 93.976562 72.84375 " fill-opacity="1" fill-rule="nonzero"/><path fill="rgb(62.748718%, 67.059326%, 100%)" d="M 86 71 C 82.691406 71 80 73.691406 80 77 C 80 80.308594 82.691406 83 86 83 C 89.308594 83 92 80.308594 92 77 C 92 73.691406 89.308594 71 86 71 Z M 86 81 C 83.792969 81 82 79.207031 82 77 C 82 74.792969 83.792969 73 86 73 C 88.207031 73 90 74.792969 90 77 C 90 79.207031 88.207031 81 86 81 Z M 86 81 " fill-opacity="1" fill-rule="nonzero"/><path fill="rgb(62.748718%, 67.059326%, 100%)" d="M 104.933594 55.675781 C 104.921875 55.640625 104.914062 55.609375 104.898438 55.578125 C 104.851562 55.476562 104.792969 55.378906 104.710938 55.296875 C 104.707031 55.296875 104.707031 55.292969 104.707031 55.292969 L 94.707031 45.292969 C 94.707031 45.292969 94.703125 45.292969 94.703125 45.289062 C 94.617188 45.207031 94.519531 45.144531 94.417969 45.097656 C 94.390625 45.085938 94.359375 45.078125 94.332031 45.066406 C 94.242188 45.035156 94.148438 45.015625 94.054688 45.011719 C 94.035156 45.011719 94.019531 45 94 45 L 60 45 C 59.449219 45 59 45.445312 59 46 L 59 50 L 46 50 C 45.449219 50 45 50.445312 45 51 L 45 59 C 45 59.554688 45.449219 60 46 60 L 59 60 L 59 75.585938 L 46.707031 63.292969 C 46.421875 63.007812 45.988281 62.917969 45.617188 63.074219 C 45.242188 63.230469 45 63.597656 45 64 L 45 104 C 45 104.554688 45.449219 105 46 105 L 104 105 C 104.550781 105 105 104.554688 105 104 L 105 56 C 105 55.976562 104.988281 55.960938 104.988281 55.9375 C 104.980469 55.847656 104.964844 55.761719 104.933594 55.675781 Z M 101.585938 55 L 95 55 L 95 48.414062 Z M 79 52.722656 L 82.984375 55 L 79 57.277344 Z M 77 58 L 54 58 L 54 52 L 77 52 Z M 47 52 L 52 52 L 52 58 L 47 58 Z M 47 103 L 47 66.414062 L 52.585938 72 L 50.292969 74.292969 L 51.707031 75.707031 L 54 73.414062 L 56.585938 76 L 54.292969 78.292969 L 55.707031 79.707031 L 58 77.414062 L 60.585938 80 L 58.292969 82.292969 L 59.707031 83.707031 L 62 81.414062 L 64.585938 84 L 62.292969 86.292969 L 63.707031 87.707031 L 66 85.414062 L 68.585938 88 L 66.292969 90.292969 L 67.707031 91.707031 L 70 89.414062 L 72.585938 92 L 70.292969 94.292969 L 71.707031 95.707031 L 74 93.414062 L 76.585938 96 L 74.292969 98.292969 L 75.707031 99.707031 L 78 97.414062 L 83.585938 103 Z M 103 103 L 86.414062 103 L 61 77.585938 L 61 60 L 78 60 C 78.175781 60 78.34375 59.953125 78.496094 59.867188 L 85.496094 55.867188 C 85.808594 55.691406 86 55.359375 86 55 C 86 54.640625 85.808594 54.308594 85.496094 54.132812 L 78.496094 50.132812 C 78.34375 50.046875 78.175781 50 78 50 L 61 50 L 61 47 L 93 47 L 93 56 C 93 56.554688 93.449219 57 94 57 L 103 57 Z M 103 103 " fill-opacity="1" fill-rule="nonzero"/><path fill="rgb(62.748718%, 67.059326%, 100%)" d="M 99 99 L 101 99 L 101 101 L 99 101 Z M 99 99 " fill-opacity="1" fill-rule="nonzero"/><path fill="rgb(62.748718%, 67.059326%, 100%)" d="M 95 99 L 97 99 L 97 101 L 95 101 Z M 95 99 " fill-opacity="1" fill-rule="nonzero"/><path fill="rgb(62.748718%, 67.059326%, 100%)" d="M 91 99 L 93 99 L 93 101 L 91 101 Z M 91 99 " fill-opacity="1" fill-rule="nonzero"/></svg>