<svg xmlns="http://www.w3.org/2000/svg" xmlns:xlink="http://www.w3.org/1999/xlink" width="200" zoomAndPan="magnify" viewBox="0 0 150 149.999998" height="200" preserveAspectRatio="xMidYMid meet" version="1.0"><defs><clipPath id="id1"><path d="M 47.738281 45 L 92 45 L 92 105 L 47.738281 105 Z M 47.738281 45 " clip-rule="nonzero"/></clipPath><clipPath id="id2"><path d="M 96 59 L 106.988281 59 L 106.988281 77 L 96 77 Z M 96 59 " clip-rule="nonzero"/></clipPath><clipPath id="id3"><path d="M 98 48 L 106.988281 48 L 106.988281 56 L 98 56 Z M 98 48 " clip-rule="nonzero"/></clipPath></defs><g clip-path="url(#id1)"><path fill="rgb(62.748718%, 67.059326%, 100%)" d="M 86.546875 105 L 52.632812 105 C 49.917969 105 47.707031 102.800781 47.707031 100.097656 L 47.707031 50.039062 C 47.707031 47.332031 49.917969 45.132812 52.632812 45.132812 L 80.816406 45.132812 C 81.351562 45.132812 81.785156 45.566406 81.785156 46.101562 C 81.785156 46.636719 81.351562 47.066406 80.816406 47.066406 L 52.632812 47.066406 C 50.988281 47.066406 49.652344 48.402344 49.652344 50.039062 L 49.652344 100.097656 C 49.652344 101.734375 50.988281 103.066406 52.632812 103.066406 L 86.546875 103.066406 C 88.191406 103.066406 89.527344 101.734375 89.527344 100.097656 L 89.527344 78.433594 C 89.527344 77.902344 89.964844 77.46875 90.5 77.46875 C 91.035156 77.46875 91.472656 77.902344 91.472656 78.433594 L 91.472656 100.097656 C 91.472656 102.800781 89.261719 105 86.546875 105 Z M 90.5 65.941406 C 89.964844 65.941406 89.527344 65.507812 89.527344 64.976562 L 89.527344 56.105469 C 89.527344 55.570312 89.964844 55.140625 90.5 55.140625 C 91.035156 55.140625 91.472656 55.570312 91.472656 56.105469 L 91.472656 64.976562 C 91.472656 65.507812 91.035156 65.941406 90.5 65.941406 Z M 90.5 65.941406 " fill-opacity="1" fill-rule="nonzero"/></g><path fill="rgb(62.748718%, 67.059326%, 100%)" d="M 90.5 57.074219 L 84.765625 57.074219 C 82.050781 57.074219 79.84375 54.875 79.84375 52.167969 L 79.84375 46.101562 C 79.84375 45.707031 80.085938 45.351562 80.453125 45.203125 C 80.816406 45.058594 81.238281 45.144531 81.515625 45.429688 L 91.199219 55.433594 C 91.472656 55.714844 91.546875 56.128906 91.394531 56.484375 C 91.242188 56.839844 90.890625 57.074219 90.5 57.074219 Z M 81.785156 48.496094 L 81.785156 52.167969 C 81.785156 53.804688 83.125 55.136719 84.765625 55.136719 L 88.214844 55.136719 Z M 81.785156 48.496094 " fill-opacity="1" fill-rule="nonzero"/><path fill="rgb(62.748718%, 67.059326%, 100%)" d="M 76.695312 94.734375 C 76.515625 94.734375 76.339844 94.6875 76.179688 94.589844 C 75.847656 94.382812 75.671875 93.996094 75.738281 93.609375 L 77.273438 84.398438 C 77.292969 84.273438 77.339844 84.152344 77.40625 84.042969 L 96.960938 52.839844 C 97.691406 51.675781 99.265625 51.226562 100.339844 51.890625 L 104.042969 54.195312 C 105.148438 54.886719 105.429688 56.429688 104.675781 57.636719 L 85.125 88.839844 C 85.054688 88.949219 84.96875 89.039062 84.867188 89.113281 L 77.261719 94.554688 C 77.09375 94.675781 76.894531 94.734375 76.695312 94.734375 Z M 79.15625 84.90625 L 78.039062 91.617188 L 83.578125 87.652344 L 103.03125 56.613281 C 103.226562 56.296875 103.183594 55.941406 103.011719 55.832031 L 99.3125 53.535156 C 99.160156 53.441406 98.820312 53.527344 98.609375 53.863281 Z M 79.15625 84.90625 " fill-opacity="1" fill-rule="nonzero"/><g clip-path="url(#id2)"><path fill="rgb(62.748718%, 67.059326%, 100%)" d="M 97.410156 76.957031 C 97.234375 76.957031 97.058594 76.910156 96.898438 76.808594 C 96.441406 76.527344 96.304688 75.929688 96.585938 75.476562 L 104.570312 62.738281 L 101.523438 60.847656 C 101.066406 60.566406 100.929688 59.96875 101.210938 59.515625 C 101.496094 59.0625 102.09375 58.921875 102.550781 59.207031 L 106.421875 61.609375 C 106.640625 61.742188 106.796875 61.960938 106.855469 62.210938 C 106.914062 62.460938 106.867188 62.722656 106.730469 62.941406 L 98.234375 76.5 C 98.050781 76.792969 97.734375 76.957031 97.410156 76.957031 Z M 97.410156 76.957031 " fill-opacity="1" fill-rule="nonzero"/></g><g clip-path="url(#id3)"><path fill="rgb(62.748718%, 67.059326%, 100%)" d="M 103.527344 55.984375 C 103.351562 55.984375 103.175781 55.933594 103.015625 55.835938 L 99.3125 53.535156 C 99.09375 53.398438 98.9375 53.183594 98.878906 52.933594 C 98.820312 52.683594 98.867188 52.417969 99.003906 52.203125 L 101.042969 48.953125 C 101.324219 48.503906 101.925781 48.363281 102.378906 48.644531 L 106.078125 50.945312 C 106.296875 51.082031 106.453125 51.300781 106.511719 51.550781 C 106.570312 51.800781 106.527344 52.0625 106.390625 52.28125 L 104.351562 55.527344 C 104.167969 55.820312 103.851562 55.984375 103.527344 55.984375 Z M 101.164062 52.40625 L 103.21875 53.683594 L 104.226562 52.074219 L 102.171875 50.796875 Z M 101.164062 52.40625 " fill-opacity="1" fill-rule="nonzero"/></g><path fill="rgb(62.748718%, 67.059326%, 100%)" d="M 76.695312 94.734375 L 56.90625 94.734375 C 56.371094 94.734375 55.9375 94.300781 55.9375 93.769531 C 55.9375 93.234375 56.371094 92.800781 56.90625 92.800781 L 76.695312 92.800781 C 77.230469 92.800781 77.664062 93.234375 77.664062 93.769531 C 77.664062 94.300781 77.230469 94.734375 76.695312 94.734375 Z M 76.695312 94.734375 " fill-opacity="1" fill-rule="nonzero"/><path fill="rgb(62.748718%, 67.059326%, 100%)" d="M 69.40625 61.265625 L 56.90625 61.265625 C 56.371094 61.265625 55.9375 60.832031 55.9375 60.300781 C 55.9375 59.765625 56.371094 59.332031 56.90625 59.332031 L 69.40625 59.332031 C 69.941406 59.332031 70.375 59.765625 70.375 60.300781 C 70.375 60.832031 69.941406 61.265625 69.40625 61.265625 Z M 69.40625 61.265625 " fill-opacity="1" fill-rule="nonzero"/><path fill="rgb(62.748718%, 67.059326%, 100%)" d="M 79.796875 69.632812 L 56.90625 69.632812 C 56.371094 69.632812 55.9375 69.199219 55.9375 68.667969 C 55.9375 68.132812 56.371094 67.699219 56.90625 67.699219 L 79.796875 67.699219 C 80.332031 67.699219 80.769531 68.132812 80.769531 68.667969 C 80.769531 69.199219 80.332031 69.632812 79.796875 69.632812 Z M 79.796875 69.632812 " fill-opacity="1" fill-rule="nonzero"/><path fill="rgb(62.748718%, 67.059326%, 100%)" d="M 76.695312 78.003906 L 56.90625 78.003906 C 56.371094 78.003906 55.9375 77.570312 55.9375 77.035156 C 55.9375 76.5 56.371094 76.066406 56.90625 76.066406 L 76.695312 76.066406 C 77.230469 76.066406 77.664062 76.5 77.664062 77.035156 C 77.664062 77.570312 77.230469 78.003906 76.695312 78.003906 Z M 76.695312 78.003906 " fill-opacity="1" fill-rule="nonzero"/><path fill="rgb(62.748718%, 67.059326%, 100%)" d="M 65.730469 86.367188 L 56.90625 86.367188 C 56.371094 86.367188 55.9375 85.933594 55.9375 85.398438 C 55.9375 84.867188 56.371094 84.433594 56.90625 84.433594 L 65.730469 84.433594 C 66.265625 84.433594 66.703125 84.867188 66.703125 85.398438 C 66.703125 85.933594 66.265625 86.367188 65.730469 86.367188 Z M 65.730469 86.367188 " fill-opacity="1" fill-rule="nonzero"/><path fill="rgb(62.748718%, 67.059326%, 100%)" d="M 81.160156 61.265625 L 75.28125 61.265625 C 74.742188 61.265625 74.308594 60.832031 74.308594 60.300781 C 74.308594 59.765625 74.742188 59.332031 75.28125 59.332031 L 81.160156 59.332031 C 81.699219 59.332031 82.132812 59.765625 82.132812 60.300781 C 82.132812 60.832031 81.699219 61.265625 81.160156 61.265625 Z M 81.160156 61.265625 " fill-opacity="1" fill-rule="nonzero"/><path fill="rgb(62.748718%, 67.059326%, 100%)" d="M 78.09375 86.367188 L 70.351562 86.367188 C 69.8125 86.367188 69.378906 85.933594 69.378906 85.398438 C 69.378906 84.867188 69.8125 84.433594 70.351562 84.433594 L 78.09375 84.433594 C 78.628906 84.433594 79.0625 84.867188 79.0625 85.398438 C 79.0625 85.933594 78.628906 86.367188 78.09375 86.367188 Z M 78.09375 86.367188 " fill-opacity="1" fill-rule="nonzero"/></svg>