<svg xmlns="http://www.w3.org/2000/svg" xmlns:xlink="http://www.w3.org/1999/xlink" width="300" zoomAndPan="magnify" viewBox="0 0 224.87999 112.499997" height="150" preserveAspectRatio="xMidYMid meet" version="1.0"><defs><g/><clipPath id="id1"><path d="M 3.164062 39.207031 L 36.765625 39.207031 L 36.765625 72.808594 L 3.164062 72.808594 Z M 3.164062 39.207031 " clip-rule="nonzero"/></clipPath></defs><g fill="rgb(0%, 0%, 0%)" fill-opacity="1"><g transform="translate(39.175987, 63.841257)"><g><path d="M 6.203125 0.21875 C 5.148438 0.21875 4.21875 0.046875 3.40625 -0.296875 C 2.59375 -0.648438 1.804688 -1.203125 1.046875 -1.953125 C 0.867188 -2.097656 0.78125 -2.269531 0.78125 -2.46875 C 0.78125 -2.644531 0.847656 -2.804688 0.984375 -2.953125 C 1.128906 -3.097656 1.289062 -3.171875 1.46875 -3.171875 C 1.644531 -3.171875 1.804688 -3.097656 1.953125 -2.953125 C 3.085938 -1.703125 4.507812 -1.078125 6.21875 -1.078125 C 7.269531 -1.078125 8.140625 -1.320312 8.828125 -1.8125 C 9.523438 -2.3125 9.875 -2.960938 9.875 -3.765625 C 9.875 -4.390625 9.703125 -4.910156 9.359375 -5.328125 C 9.015625 -5.742188 8.566406 -6.082031 8.015625 -6.34375 C 7.460938 -6.613281 6.753906 -6.882812 5.890625 -7.15625 C 4.953125 -7.4375 4.164062 -7.742188 3.53125 -8.078125 C 2.894531 -8.421875 2.378906 -8.875 1.984375 -9.4375 C 1.597656 -10 1.40625 -10.707031 1.40625 -11.5625 C 1.40625 -12.34375 1.613281 -13.03125 2.03125 -13.625 C 2.445312 -14.226562 3.03125 -14.695312 3.78125 -15.03125 C 4.53125 -15.375 5.394531 -15.546875 6.375 -15.546875 C 7.269531 -15.546875 8.109375 -15.394531 8.890625 -15.09375 C 9.671875 -14.800781 10.289062 -14.378906 10.75 -13.828125 C 10.96875 -13.578125 11.078125 -13.363281 11.078125 -13.1875 C 11.078125 -13.03125 11.003906 -12.878906 10.859375 -12.734375 C 10.710938 -12.597656 10.554688 -12.53125 10.390625 -12.53125 C 10.242188 -12.53125 10.117188 -12.582031 10.015625 -12.6875 C 9.617188 -13.15625 9.09375 -13.535156 8.4375 -13.828125 C 7.78125 -14.117188 7.09375 -14.265625 6.375 -14.265625 C 5.3125 -14.265625 4.441406 -14.023438 3.765625 -13.546875 C 3.097656 -13.078125 2.765625 -12.429688 2.765625 -11.609375 C 2.765625 -10.765625 3.082031 -10.113281 3.71875 -9.65625 C 4.363281 -9.207031 5.285156 -8.789062 6.484375 -8.40625 C 7.523438 -8.101562 8.375 -7.789062 9.03125 -7.46875 C 9.6875 -7.144531 10.222656 -6.6875 10.640625 -6.09375 C 11.054688 -5.507812 11.265625 -4.734375 11.265625 -3.765625 C 11.265625 -3.023438 11.046875 -2.347656 10.609375 -1.734375 C 10.179688 -1.128906 9.582031 -0.648438 8.8125 -0.296875 C 8.050781 0.046875 7.179688 0.21875 6.203125 0.21875 Z M 6.203125 0.21875 "/></g></g></g><g fill="rgb(0%, 0%, 0%)" fill-opacity="1"><g transform="translate(54.680865, 63.841257)"><g><path d="M 13.5 -0.875 C 13.519531 -0.757812 13.53125 -0.671875 13.53125 -0.609375 C 13.53125 -0.421875 13.460938 -0.269531 13.328125 -0.15625 C 13.203125 -0.0390625 13.050781 0.015625 12.875 0.015625 C 12.726562 0.015625 12.597656 -0.0195312 12.484375 -0.09375 C 12.378906 -0.175781 12.300781 -0.285156 12.25 -0.421875 L 10.609375 -4.421875 L 3.484375 -4.421875 L 1.859375 -0.421875 C 1.742188 -0.128906 1.546875 0.015625 1.265625 0.015625 C 1.066406 0.015625 0.914062 -0.03125 0.8125 -0.125 C 0.707031 -0.226562 0.648438 -0.367188 0.640625 -0.546875 L 0.640625 -0.609375 C 0.640625 -0.703125 0.644531 -0.769531 0.65625 -0.8125 L 6.4375 -14.96875 C 6.550781 -15.257812 6.769531 -15.40625 7.09375 -15.40625 C 7.238281 -15.40625 7.363281 -15.363281 7.46875 -15.28125 C 7.582031 -15.195312 7.671875 -15.09375 7.734375 -14.96875 Z M 3.984375 -5.71875 L 10.078125 -5.71875 L 7.015625 -13.203125 Z M 3.984375 -5.71875 "/></g></g></g><g fill="rgb(0%, 0%, 0%)" fill-opacity="1"><g transform="translate(72.047137, 63.841257)"><g><path d="M 11.828125 -15.328125 C 12.015625 -15.328125 12.171875 -15.269531 12.296875 -15.15625 C 12.421875 -15.039062 12.484375 -14.890625 12.484375 -14.703125 C 12.484375 -14.515625 12.421875 -14.363281 12.296875 -14.25 C 12.171875 -14.132812 12.015625 -14.078125 11.828125 -14.078125 L 7.296875 -14.078125 L 7.296875 -0.65625 C 7.296875 -0.46875 7.226562 -0.3125 7.09375 -0.1875 C 6.96875 -0.0625 6.804688 0 6.609375 0 C 6.410156 0 6.25 -0.0625 6.125 -0.1875 C 6 -0.3125 5.9375 -0.46875 5.9375 -0.65625 L 5.9375 -14.078125 L 1.40625 -14.078125 C 1.21875 -14.078125 1.0625 -14.132812 0.9375 -14.25 C 0.8125 -14.375 0.75 -14.53125 0.75 -14.71875 C 0.75 -14.894531 0.8125 -15.039062 0.9375 -15.15625 C 1.0625 -15.269531 1.21875 -15.328125 1.40625 -15.328125 Z M 11.828125 -15.328125 "/></g></g></g><g fill="rgb(0%, 0%, 0%)" fill-opacity="1"><g transform="translate(88.471763, 63.841257)"><g><path d="M 3.4375 -0.671875 C 3.425781 -0.484375 3.351562 -0.320312 3.21875 -0.1875 C 3.082031 -0.0625 2.921875 0 2.734375 0 C 2.535156 0 2.375 -0.0625 2.25 -0.1875 C 2.125 -0.3125 2.0625 -0.472656 2.0625 -0.671875 L 2.0625 -14.65625 C 2.0625 -14.863281 2.125 -15.023438 2.25 -15.140625 C 2.382812 -15.265625 2.554688 -15.328125 2.765625 -15.328125 C 2.953125 -15.328125 3.109375 -15.257812 3.234375 -15.125 C 3.367188 -15 3.4375 -14.84375 3.4375 -14.65625 Z M 3.4375 -0.671875 "/></g></g></g><g fill="rgb(0%, 0%, 0%)" fill-opacity="1"><g transform="translate(97.144237, 63.841257)"><g><path d="M 13.5 -0.875 C 13.519531 -0.757812 13.53125 -0.671875 13.53125 -0.609375 C 13.53125 -0.421875 13.460938 -0.269531 13.328125 -0.15625 C 13.203125 -0.0390625 13.050781 0.015625 12.875 0.015625 C 12.726562 0.015625 12.597656 -0.0195312 12.484375 -0.09375 C 12.378906 -0.175781 12.300781 -0.285156 12.25 -0.421875 L 10.609375 -4.421875 L 3.484375 -4.421875 L 1.859375 -0.421875 C 1.742188 -0.128906 1.546875 0.015625 1.265625 0.015625 C 1.066406 0.015625 0.914062 -0.03125 0.8125 -0.125 C 0.707031 -0.226562 0.648438 -0.367188 0.640625 -0.546875 L 0.640625 -0.609375 C 0.640625 -0.703125 0.644531 -0.769531 0.65625 -0.8125 L 6.4375 -14.96875 C 6.550781 -15.257812 6.769531 -15.40625 7.09375 -15.40625 C 7.238281 -15.40625 7.363281 -15.363281 7.46875 -15.28125 C 7.582031 -15.195312 7.671875 -15.09375 7.734375 -14.96875 Z M 3.984375 -5.71875 L 10.078125 -5.71875 L 7.015625 -13.203125 Z M 3.984375 -5.71875 "/></g></g></g><g fill="rgb(0%, 0%, 0%)" fill-opacity="1"><g transform="translate(114.510509, 63.841257)"><g/></g></g><g fill="rgb(0%, 0%, 0%)" fill-opacity="1"><g transform="translate(123.686654, 63.841257)"><g><path d="M 10.25 -8.15625 C 11.125 -7.9375 11.835938 -7.492188 12.390625 -6.828125 C 12.953125 -6.171875 13.234375 -5.316406 13.234375 -4.265625 C 13.234375 -2.835938 12.789062 -1.769531 11.90625 -1.0625 C 11.019531 -0.351562 9.921875 0 8.609375 0 L 2.71875 0 C 2.53125 0 2.375 -0.0625 2.25 -0.1875 C 2.125 -0.3125 2.0625 -0.46875 2.0625 -0.65625 L 2.0625 -14.671875 C 2.0625 -14.867188 2.125 -15.023438 2.25 -15.140625 C 2.375 -15.265625 2.53125 -15.328125 2.71875 -15.328125 L 8.515625 -15.328125 C 9.742188 -15.328125 10.703125 -14.988281 11.390625 -14.3125 C 12.085938 -13.644531 12.4375 -12.726562 12.4375 -11.5625 C 12.4375 -10.789062 12.242188 -10.097656 11.859375 -9.484375 C 11.484375 -8.867188 10.945312 -8.425781 10.25 -8.15625 Z M 11.046875 -11.453125 C 11.046875 -12.253906 10.804688 -12.882812 10.328125 -13.34375 C 9.847656 -13.8125 9.1875 -14.046875 8.34375 -14.046875 L 3.46875 -14.046875 L 3.46875 -8.5625 L 8.34375 -8.5625 C 9.132812 -8.582031 9.78125 -8.835938 10.28125 -9.328125 C 10.789062 -9.828125 11.046875 -10.535156 11.046875 -11.453125 Z M 8.546875 -1.296875 C 9.523438 -1.296875 10.316406 -1.539062 10.921875 -2.03125 C 11.523438 -2.53125 11.828125 -3.273438 11.828125 -4.265625 C 11.828125 -5.296875 11.515625 -6.050781 10.890625 -6.53125 C 10.273438 -7.007812 9.476562 -7.25 8.5 -7.25 L 3.46875 -7.25 L 3.46875 -1.296875 Z M 8.546875 -1.296875 "/></g></g></g><g fill="rgb(0%, 0%, 0%)" fill-opacity="1"><g transform="translate(141.140536, 63.841257)"><g><path d="M 13.25 -1.1875 C 13.46875 -1.039062 13.578125 -0.859375 13.578125 -0.640625 C 13.578125 -0.566406 13.550781 -0.46875 13.5 -0.34375 C 13.4375 -0.25 13.351562 -0.171875 13.25 -0.109375 C 13.144531 -0.046875 13.035156 -0.015625 12.921875 -0.015625 C 12.773438 -0.015625 12.648438 -0.046875 12.546875 -0.109375 C 12.140625 -0.335938 11.8125 -0.710938 11.5625 -1.234375 C 11.3125 -1.765625 11.1875 -2.609375 11.1875 -3.765625 C 11.1875 -4.785156 10.898438 -5.503906 10.328125 -5.921875 C 9.765625 -6.335938 9.085938 -6.546875 8.296875 -6.546875 L 3.4375 -6.546875 L 3.4375 -0.65625 C 3.4375 -0.46875 3.378906 -0.3125 3.265625 -0.1875 C 3.148438 -0.0625 2.992188 0 2.796875 0 C 2.597656 0 2.425781 -0.0625 2.28125 -0.1875 C 2.132812 -0.3125 2.0625 -0.46875 2.0625 -0.65625 L 2.0625 -14.671875 C 2.0625 -14.867188 2.125 -15.023438 2.25 -15.140625 C 2.375 -15.265625 2.53125 -15.328125 2.71875 -15.328125 L 8.625 -15.328125 C 9.457031 -15.328125 10.203125 -15.148438 10.859375 -14.796875 C 11.515625 -14.441406 12.03125 -13.945312 12.40625 -13.3125 C 12.78125 -12.6875 12.96875 -11.976562 12.96875 -11.1875 C 12.96875 -10.257812 12.722656 -9.441406 12.234375 -8.734375 C 11.742188 -8.023438 11.101562 -7.535156 10.3125 -7.265625 C 10.957031 -7.023438 11.484375 -6.609375 11.890625 -6.015625 C 12.304688 -5.421875 12.519531 -4.703125 12.53125 -3.859375 C 12.539062 -2.953125 12.597656 -2.316406 12.703125 -1.953125 C 12.816406 -1.585938 13 -1.332031 13.25 -1.1875 Z M 8.703125 -7.75 C 9.210938 -7.800781 9.6875 -7.972656 10.125 -8.265625 C 10.5625 -8.554688 10.910156 -8.945312 11.171875 -9.4375 C 11.429688 -9.9375 11.5625 -10.507812 11.5625 -11.15625 C 11.5625 -11.988281 11.28125 -12.675781 10.71875 -13.21875 C 10.15625 -13.769531 9.421875 -14.046875 8.515625 -14.046875 L 3.4375 -14.046875 L 3.4375 -7.75 Z M 8.703125 -7.75 "/></g></g></g><g fill="rgb(0%, 0%, 0%)" fill-opacity="1"><g transform="translate(159.010484, 63.841257)"><g><path d="M 15.734375 -7.671875 C 15.734375 -6.160156 15.414062 -4.804688 14.78125 -3.609375 C 14.15625 -2.410156 13.285156 -1.472656 12.171875 -0.796875 C 11.066406 -0.117188 9.804688 0.21875 8.390625 0.21875 C 6.972656 0.21875 5.707031 -0.117188 4.59375 -0.796875 C 3.488281 -1.472656 2.617188 -2.410156 1.984375 -3.609375 C 1.359375 -4.804688 1.046875 -6.160156 1.046875 -7.671875 C 1.046875 -9.191406 1.359375 -10.546875 1.984375 -11.734375 C 2.617188 -12.929688 3.488281 -13.863281 4.59375 -14.53125 C 5.707031 -15.207031 6.972656 -15.546875 8.390625 -15.546875 C 9.804688 -15.546875 11.066406 -15.207031 12.171875 -14.53125 C 13.285156 -13.863281 14.15625 -12.929688 14.78125 -11.734375 C 15.414062 -10.546875 15.734375 -9.191406 15.734375 -7.671875 Z M 14.328125 -7.671875 C 14.328125 -8.941406 14.070312 -10.078125 13.5625 -11.078125 C 13.0625 -12.078125 12.363281 -12.851562 11.46875 -13.40625 C 10.570312 -13.957031 9.546875 -14.234375 8.390625 -14.234375 C 7.234375 -14.234375 6.207031 -13.957031 5.3125 -13.40625 C 4.414062 -12.851562 3.710938 -12.078125 3.203125 -11.078125 C 2.703125 -10.078125 2.453125 -8.941406 2.453125 -7.671875 C 2.453125 -6.398438 2.703125 -5.265625 3.203125 -4.265625 C 3.710938 -3.265625 4.414062 -2.484375 5.3125 -1.921875 C 6.207031 -1.367188 7.234375 -1.09375 8.390625 -1.09375 C 9.546875 -1.09375 10.570312 -1.367188 11.46875 -1.921875 C 12.363281 -2.484375 13.0625 -3.265625 13.5625 -4.265625 C 14.070312 -5.265625 14.328125 -6.398438 14.328125 -7.671875 Z M 14.328125 -7.671875 "/></g></g></g><g fill="rgb(0%, 0%, 0%)" fill-opacity="1"><g transform="translate(178.982707, 63.841257)"><g><path d="M 19.796875 -15.375 C 20.003906 -15.375 20.171875 -15.316406 20.296875 -15.203125 C 20.429688 -15.085938 20.5 -14.925781 20.5 -14.71875 L 20.453125 -14.4375 L 15.625 -0.421875 C 15.570312 -0.285156 15.488281 -0.179688 15.375 -0.109375 C 15.269531 -0.0351562 15.15625 0 15.03125 0 C 14.695312 0 14.476562 -0.140625 14.375 -0.421875 L 10.578125 -9.765625 L 6.796875 -0.421875 C 6.660156 -0.140625 6.441406 0 6.140625 0 C 6.003906 0 5.878906 -0.0351562 5.765625 -0.109375 C 5.660156 -0.179688 5.59375 -0.285156 5.5625 -0.421875 L 0.71875 -14.4375 C 0.675781 -14.519531 0.65625 -14.609375 0.65625 -14.703125 C 0.65625 -14.898438 0.734375 -15.0625 0.890625 -15.1875 C 1.046875 -15.3125 1.207031 -15.375 1.375 -15.375 C 1.519531 -15.375 1.648438 -15.335938 1.765625 -15.265625 C 1.890625 -15.191406 1.972656 -15.09375 2.015625 -14.96875 L 6.3125 -2.4375 L 9.984375 -11.609375 C 10.117188 -11.898438 10.328125 -12.039062 10.609375 -12.03125 C 10.753906 -12.039062 10.878906 -12.003906 10.984375 -11.921875 C 11.097656 -11.847656 11.179688 -11.742188 11.234375 -11.609375 L 14.890625 -2.4375 L 19.140625 -14.96875 C 19.265625 -15.238281 19.484375 -15.375 19.796875 -15.375 Z M 19.796875 -15.375 "/></g></g></g><g fill="rgb(0%, 0%, 0%)" fill-opacity="1"><g transform="translate(203.334687, 63.841257)"><g><path d="M 13.28125 -15.328125 C 13.46875 -15.328125 13.613281 -15.269531 13.71875 -15.15625 C 13.832031 -15.039062 13.890625 -14.894531 13.890625 -14.71875 L 13.890625 -0.703125 C 13.890625 -0.484375 13.820312 -0.3125 13.6875 -0.1875 C 13.5625 -0.0625 13.398438 0 13.203125 0 C 13.109375 0 13.007812 -0.0195312 12.90625 -0.0625 C 12.8125 -0.101562 12.738281 -0.15625 12.6875 -0.21875 L 3.28125 -12.875 L 3.28125 -0.59375 C 3.28125 -0.425781 3.21875 -0.285156 3.09375 -0.171875 C 2.96875 -0.0546875 2.828125 0 2.671875 0 C 2.492188 0 2.347656 -0.0546875 2.234375 -0.171875 C 2.117188 -0.285156 2.0625 -0.425781 2.0625 -0.59375 L 2.0625 -14.671875 C 2.0625 -14.878906 2.125 -15.039062 2.25 -15.15625 C 2.375 -15.269531 2.519531 -15.328125 2.6875 -15.328125 C 2.925781 -15.328125 3.101562 -15.25 3.21875 -15.09375 L 12.65625 -2.359375 L 12.65625 -14.71875 C 12.65625 -14.894531 12.710938 -15.039062 12.828125 -15.15625 C 12.953125 -15.269531 13.101562 -15.328125 13.28125 -15.328125 Z M 13.28125 -15.328125 "/></g></g></g><g clip-path="url(#id1)"><path fill="rgb(62.748718%, 67.059326%, 100%)" d="M 19.964844 72.808594 C 10.699219 72.808594 3.164062 65.273438 3.164062 56.007812 C 3.164062 46.746094 10.699219 39.207031 19.964844 39.207031 C 29.230469 39.207031 36.765625 46.746094 36.765625 56.007812 C 36.765625 65.273438 29.230469 72.808594 19.964844 72.808594 Z M 19.964844 40.382812 C 11.347656 40.382812 4.339844 47.394531 4.339844 56.007812 C 4.339844 64.625 11.347656 71.636719 19.964844 71.636719 C 28.582031 71.636719 35.589844 64.625 35.589844 56.007812 C 35.589844 47.394531 28.582031 40.382812 19.964844 40.382812 Z M 19.964844 40.382812 " fill-opacity="1" fill-rule="nonzero"/></g><path stroke-linecap="round" transform="matrix(0.000000000000000045, 0.733939, -0.746681, 0.000000000000000046, 19.831715, 45.610597)" fill="none" stroke-linejoin="miter" d="M 0.498631 -0.000423391 L 26.977106 -0.000423391 " stroke="rgb(62.748718%, 67.059326%, 100%)" stroke-width="1" stroke-opacity="1" stroke-miterlimit="4"/><g fill="rgb(62.748718%, 67.059326%, 100%)" fill-opacity="1"><g transform="translate(8.497943, 61.767528)"><g><path d="M 4.859375 0.171875 C 7.070312 0.171875 8.871094 -1.148438 8.871094 -3.425781 C 8.871094 -7.851562 2.539062 -6.769531 2.539062 -9.871094 C 2.539062 -11.171875 3.601562 -11.800781 4.816406 -11.800781 C 5.8125 -11.800781 6.636719 -11.386719 7.160156 -10.652344 L 8.242188 -11.5625 C 7.527344 -12.472656 6.269531 -13.1875 4.773438 -13.1875 C 2.777344 -13.1875 1.148438 -11.886719 1.148438 -9.761719 C 1.148438 -5.574219 7.484375 -6.617188 7.484375 -3.382812 C 7.484375 -1.996094 6.335938 -1.214844 4.878906 -1.214844 C 3.40625 -1.214844 2.34375 -2.015625 1.886719 -3.210938 L 0.628906 -2.472656 C 1.300781 -0.867188 2.929688 0.171875 4.859375 0.171875 Z M 4.859375 0.171875 "/></g></g></g><g fill="rgb(62.748718%, 67.059326%, 100%)" fill-opacity="1"><g transform="translate(21.600097, 61.934272)"><g><path d="M 7.941406 -6.542969 C 9.082031 -7.058594 9.835938 -8.09375 9.835938 -9.46875 C 9.835938 -11.492188 8.242188 -12.914062 6.261719 -12.914062 L 1.570312 -12.914062 L 1.570312 0 L 6.714844 0 C 8.671875 0 10.246094 -1.398438 10.246094 -3.402344 C 10.246094 -4.972656 9.296875 -6.089844 7.941406 -6.542969 Z M 8.457031 -9.363281 C 8.457031 -8.09375 7.402344 -7.125 6.113281 -7.125 L 2.925781 -7.125 L 2.925781 -11.535156 L 6.113281 -11.535156 C 7.402344 -11.535156 8.457031 -10.632812 8.457031 -9.363281 Z M 6.542969 -1.378906 L 2.925781 -1.378906 L 2.925781 -5.789062 L 6.542969 -5.789062 C 7.8125 -5.789062 8.867188 -4.820312 8.867188 -3.550781 C 8.867188 -2.28125 7.8125 -1.378906 6.542969 -1.378906 Z M 6.542969 -1.378906 "/></g></g></g></svg>